<?xml version="1.0" encoding="UTF-8" standalone="no"?>
<svg
   aria-hidden="true"
   role="img"
   class="iconify iconify--logos"
   width="32.726551"
   height="22.547083"
   preserveAspectRatio="xMidYMid"
   viewBox="0 0 233.17554 160.64797"
   version="1.1"
   id="svg4"
   xmlns="http://www.w3.org/2000/svg"
   xmlns:svg="http://www.w3.org/2000/svg">
  <defs
     id="defs8">
    <marker
       style="overflow:visible"
       id="marker1197"
       refX="0"
       refY="0"
       orient="auto"
       markerWidth="5.6666665"
       markerHeight="5.6666665"
       viewBox="0 0 5.6666667 5.6666667"
       preserveAspectRatio="xMidYMid">
      <path
         transform="scale(0.5)"
         style="fill:context-stroke;fill-rule:evenodd;stroke:context-stroke;stroke-width:1pt"
         d="M 5,0 C 5,2.76 2.76,5 0,5 -2.76,5 -5,2.76 -5,0 c 0,-2.76 2.3,-5 5,-5 2.76,0 5,2.24 5,5 z"
         id="path1195" />
    </marker>
    <marker
       style="overflow:visible"
       id="Dot"
       refX="0"
       refY="0"
       orient="auto"
       markerWidth="5.6666665"
       markerHeight="5.6666665"
       viewBox="0 0 5.6666667 5.6666667"
       preserveAspectRatio="xMidYMid">
      <path
         transform="scale(0.5)"
         style="fill:context-stroke;fill-rule:evenodd;stroke:context-stroke;stroke-width:1pt"
         d="M 5,0 C 5,2.76 2.76,5 0,5 -2.76,5 -5,2.76 -5,0 c 0,-2.76 2.3,-5 5,-5 2.76,0 5,2.24 5,5 z"
         id="Dot1" />
    </marker>
  </defs>
  <g
     id="g1311"
     transform="translate(-11.271015,-22.333518)">
    <path
       style="fill:none;stroke:#000000;stroke-width:0.7125;stroke-linecap:butt;stroke-linejoin:miter;stroke-dasharray:none;stroke-opacity:1"
       d="M 11.631031,72.871756 58.37937,29.227765 244.08645,29.755558 242.55753,155.05444 213.76411,177.59574 11.626654,176.45265 Z"
       id="path345" />
    <path
       style="fill:none;stroke:#000000;stroke-width:0.7125;stroke-linecap:butt;stroke-linejoin:miter;stroke-dasharray:none;stroke-opacity:1;marker-end:url(#Dot)"
       d="m 11.655984,66.911385 45.75481,-42.82571 107.113596,0.266593"
       id="path968" />
    <path
       style="fill:none;stroke:#000000;stroke-width:0.7125;stroke-linecap:butt;stroke-linejoin:miter;stroke-dasharray:none;stroke-opacity:1;marker-end:url(#marker1197)"
       d="m 242.64549,158.9604 -28.26034,22.87722 -89.42674,-0.87488"
       id="path1187" />
  </g>
</svg>
