<?xml version="1.0" encoding="UTF-8" standalone="no"?>
<!-- Created with Inkscape (http://www.inkscape.org/) -->

<svg
   width="210mm"
   height="297mm"
   viewBox="0 0 793.70081 1122.5197"
   version="1.1"
   id="svg5"
   inkscape:version="1.1.2 (0a00cf5339, 2022-02-04)"
   sodipodi:docname="01-page.svg"
   xmlns:inkscape="http://www.inkscape.org/namespaces/inkscape"
   xmlns:sodipodi="http://sodipodi.sourceforge.net/DTD/sodipodi-0.dtd"
   xmlns="http://www.w3.org/2000/svg"
   xmlns:svg="http://www.w3.org/2000/svg">
  <sodipodi:namedview
     id="namedview7"
     pagecolor="#ffffff"
     bordercolor="#666666"
     borderopacity="1.0"
     inkscape:pageshadow="2"
     inkscape:pageopacity="0.0"
     inkscape:pagecheckerboard="0"
     inkscape:document-units="mm"
     showgrid="false"
     inkscape:zoom="0.9282688"
     inkscape:cx="590.88488"
     inkscape:cy="789.64197"
     inkscape:window-width="1366"
     inkscape:window-height="699"
     inkscape:window-x="0"
     inkscape:window-y="32"
     inkscape:window-maximized="1"
     inkscape:current-layer="layer1"
     showguides="false" />
  <defs
     id="defs2">
    <rect
       x="720.64018"
       y="967.85033"
       width="0"
       height="49.055652"
       id="rect309680" />
    <rect
       x="477.18753"
       y="295.52823"
       width="231.12269"
       height="125.39744"
       id="rect129628" />
    <rect
       x="10.852104"
       y="105.01092"
       width="316.95408"
       height="801.01609"
       id="rect16607" />
    <rect
       x="54.680212"
       y="952.57666"
       width="768.44064"
       height="98.740161"
       id="rect4650" />
    <rect
       x="54.68021"
       y="952.57666"
       width="729.22286"
       height="68.327479"
       id="rect4650-5" />
    <rect
       x="10.852104"
       y="105.01092"
       width="313.79447"
       height="938.25925"
       id="rect16607-3" />
  </defs>
  <g
     inkscape:label="Warstwa 1"
     inkscape:groupmode="layer"
     id="layer1">
    <text
       xml:space="preserve"
       id="text4648"
       style="font-style:normal;font-weight:normal;font-size:40px;line-height:1.25;font-family:sans-serif;white-space:pre;shape-inside:url(#rect4650);fill:#cccccc;fill-opacity:1;stroke:none"
       transform="matrix(0.98665151,0,0,1,-18.798746,96.69157)"
       sodipodi:insensitive="true"><tspan
         x="54.679688"
         y="989.17617"
         id="tspan24475"><tspan
           style="font-family:Oxanium;-inkscape-font-specification:'Oxanium, @wght=300';font-variation-settings:'wght' 300"
           id="tspan24471">0101011010101011101010010     </tspan><tspan
           style="fill:#000000"
           id="tspan24473">001</tspan></tspan></text>
    <text
       xml:space="preserve"
       id="text4648-6"
       style="font-style:normal;font-weight:normal;font-size:40px;line-height:1.25;font-family:sans-serif;white-space:pre;shape-inside:url(#rect4650-5);fill:#cccccc;fill-opacity:1;stroke:none"
       transform="matrix(0.9599921,0,0,1,1.6696175,-923.77969)"
       sodipodi:insensitive="true"><tspan
         x="54.679688"
         y="989.17617"
         id="tspan24481"><tspan
           style="fill:#000000"
           id="tspan24477">001     </tspan><tspan
           style="font-family:Oxanium;-inkscape-font-specification:'Oxanium, @wght=300';font-variation-settings:'wght' 300"
           id="tspan24479">0101011010101011101010010</tspan></tspan></text>
    <text
       xml:space="preserve"
       id="text16605"
       style="font-style:normal;font-weight:normal;font-size:40px;line-height:0.64;font-family:sans-serif;text-align:justify;letter-spacing:-0.784471px;word-spacing:0px;white-space:pre;shape-inside:url(#rect16607);fill:#000000;fill-opacity:1;stroke:none"
       x="156.10863"
       y="0"
       transform="matrix(0.96344637,0,0,1,65.248558,-0.21651383)"><tspan
         x="10.851562"
         y="128.20234"
         id="tspan24487"><tspan
           style="font-size:19.0175px;font-family:Oxanium;-inkscape-font-specification:'Oxanium, @wght=700';font-variation-settings:'wght' 700"
           id="tspan24483">Cyber</tspan><tspan
           dx="0 6.8853602 0 0 6.8853602 0 0 0 6.8853602 0 0 0 0 0 0 0 0 0 6.8853602 0 6.8853602"
           style="font-size:19.0175px;font-family:Oxanium;-inkscape-font-specification:'Oxanium, @wght=400';font-variation-settings:'wght' 400"
           id="tspan24485"> to gra fabularna o eksploracji </tspan></tspan><tspan
         x="10.851562"
         y="153.80235"
         id="tspan24491"><tspan
           dx="0 0 0 0 0 0 0 0 0 0 39.625458 0 0 0 0 0 0 39.625458"
           style="font-size:19.0175px;font-family:Oxanium;-inkscape-font-specification:'Oxanium, @wght=400';font-variation-settings:'wght' 400"
           id="tspan24489">mrocznego świata niedalekiej </tspan></tspan><tspan
         x="10.851562"
         y="179.40236"
         id="tspan24495"><tspan
           dx="0 0 0 0 0 0 0 0 0 0 0 0 0 18.392517 0 0 0 0 0 0 0 0 0 0 0 0 0 18.392517"
           style="font-size:19.0175px;font-family:Oxanium;-inkscape-font-specification:'Oxanium, @wght=400';font-variation-settings:'wght' 400"
           id="tspan24493">przyszłości, zdominowanego przez </tspan></tspan><tspan
         x="10.851562"
         y="205.00236"
         id="tspan24499"><tspan
           dx="0 0 0 0 0 0 0 0 0 0 0 0 0 0 0 23.523148 0 23.523148 0 0 0 0 0 0 0 0 0 0 0 0 23.523132"
           style="font-size:19.0175px;font-family:Oxanium;-inkscape-font-specification:'Oxanium, @wght=400';font-variation-settings:'wght' 400"
           id="tspan24497">megakorporacje i technologię. 
</tspan></tspan><tspan
         x="10.851562"
         y="230.60237"
         id="tspan24503"><tspan
           style="font-size:19.0175px;font-family:Oxanium;-inkscape-font-specification:'Oxanium, @wght=400';font-variation-settings:'wght' 400"
           id="tspan24501">
</tspan></tspan><tspan
         x="10.851562"
         y="256.20237"
         id="tspan24507"><tspan
           dx="0 0 0 0 0 0 0 8.6981916 0 0 0 0 0 0 0 0 8.6981955 0 0 0 8.6981955 0 8.6981955"
           style="font-size:19.0175px;font-family:Oxanium;-inkscape-font-specification:'Oxanium, @wght=400';font-variation-settings:'wght' 400"
           id="tspan24505">Gracze wcielają się w mieszkańców </tspan></tspan><tspan
         x="10.851562"
         y="281.80238"
         id="tspan24511"><tspan
           dx="0 0 0 0 0 0 0 0 0 0 0 0 0 0 12.352103 0 0 0 0 0 0 0 0 0 0 0 12.352111"
           style="font-size:19.0175px;font-family:Oxanium;-inkscape-font-specification:'Oxanium, @wght=400';font-variation-settings:'wght' 400"
           id="tspan24509">gigantycznego metropolis: zatłoczo-</tspan></tspan><tspan
         x="10.851562"
         y="307.40239"
         id="tspan24515"><tspan
           dx="0 0 0 0 0 0 14.569114 0 0 0 0 0 0 0 0 0 0 0 14.569121 0 0 0 0 0 0 14.569106"
           style="font-size:19.0175px;font-family:Oxanium;-inkscape-font-specification:'Oxanium, @wght=400';font-variation-settings:'wght' 400"
           id="tspan24513">nego, hałaśliwego miasta pełnego </tspan></tspan><tspan
         x="10.851562"
         y="333.00239"
         id="tspan24519"><tspan
           dx="0 0 0 0 0 0 0 0 0 0 0 18.803673 0 0 0 0 0 0 18.80368 0 18.803665"
           style="font-size:19.0175px;font-family:Oxanium;-inkscape-font-specification:'Oxanium, @wght=400';font-variation-settings:'wght' 400"
           id="tspan24517">chciwości, obłudy i podejrzanych </tspan></tspan><tspan
         x="10.851562"
         y="358.6024"
         id="tspan24523"><tspan
           dx="0 0 0 0 0 0 0 0 0 0 0 2.9489818 0 0 0 0 0 0 0 0 0 0 0 2.9489741 0 0 0 0 2.9489894 0 0 0 0 2.9489741"
           style="font-size:19.0175px;font-family:Oxanium;-inkscape-font-specification:'Oxanium, @wght=400';font-variation-settings:'wght' 400"
           id="tspan24521">interesów. Bohaterowie mogą piąć się </tspan></tspan><tspan
         x="10.851562"
         y="384.2024"
         id="tspan24531"><tspan
           dx="0 0 0 2.5579734 0 0 0 0 0 0 0 0 0 0 2.5579753 0 0 0 0 0 0 0 2.5579829"
           style="font-size:19.0175px;font-family:Oxanium;-inkscape-font-specification:'Oxanium, @wght=400';font-variation-settings:'wght' 400"
           id="tspan24525">po szczeblach kariery zaibatsu</tspan><tspan
           style="font-size:19.0175px;font-family:Oxanium;-inkscape-font-specification:'Oxanium, @wght=400';font-variation-settings:'wght' 400"
           id="tspan24527">, </tspan><tspan
           dx="2.5579677"
           style="font-size:19.0175px;font-family:Oxanium;-inkscape-font-specification:'Oxanium, @wght=400';font-variation-settings:'wght' 400"
           id="tspan24529">działać </tspan></tspan><tspan
         x="10.851562"
         y="409.80241"
         id="tspan24535"><tspan
           dx="0 0 0 1.2045074 0 0 0 0 0 0 0 1.2045054 0 0 0 0 0 1.2044978 0 0 0 0 1.2045131 0 0 0 0 0 1.2045131 0 0 0 0 0 0 0 0 1.2045283"
           style="font-size:19.0175px;font-family:Oxanium;-inkscape-font-specification:'Oxanium, @wght=400';font-variation-settings:'wght' 400"
           id="tspan24533">na granicy prawa jako wolni strzelcy do </tspan></tspan><tspan
         x="10.851562"
         y="435.40242"
         id="tspan24539"><tspan
           dx="0 0 0 0 0 0 0 0 0 0 56.51297 0 0 0 0 56.51297"
           style="font-size:19.0175px;font-family:Oxanium;-inkscape-font-specification:'Oxanium, @wght=400';font-variation-settings:'wght' 400"
           id="tspan24537">wynajęcia albo prowadzić </tspan></tspan><tspan
         x="10.851562"
         y="461.00242"
         id="tspan24543"><tspan
           dx="0 0 0 0 0 0 0 0 0 0 0 0 0 0 0 35.218193 0 0 0 0 0 0 0 0 0 0 0 35.218201"
           style="font-size:19.0175px;font-family:Oxanium;-inkscape-font-specification:'Oxanium, @wght=400';font-variation-settings:'wght' 400"
           id="tspan24541">ustabilizowane (aczkolwiek nie </tspan></tspan><tspan
         x="10.851562"
         y="486.60243"
         id="tspan24547"><tspan
           dx="0 0 0 0 0 0 0 0 0 0 0 11.088897 0 0 0 0 0 0 0 11.088897 0 0 0 0 0 11.088897"
           style="font-size:19.0175px;font-family:Oxanium;-inkscape-font-specification:'Oxanium, @wght=400';font-variation-settings:'wght' 400"
           id="tspan24545">pozbawione wyzwań) życie członka </tspan></tspan><tspan
         x="10.851562"
         y="512.20244"
         id="tspan24551"><tspan
           dx="0 0 0 0 0 0 0 4.1030993 0 4.1030955 0 0 0 0 0 0 0 4.1031032 0 0 0 0 0 0 0 4.1030879 0 4.1030879 0 0 4.1031032"
           style="font-size:19.0175px;font-family:Oxanium;-inkscape-font-specification:'Oxanium, @wght=400';font-variation-settings:'wght' 400"
           id="tspan24549">jednej z tysięcy frakcji - od religijnych </tspan></tspan><tspan
         x="10.851562"
         y="537.80244"
         id="tspan24555"><tspan
           dx="0 0 0 0 0 9.2366629 0 0 9.2366629 0 0 0 0 0 0 0 0 9.2366629 0 0 0 0 0 0 9.2366629"
           style="font-size:19.0175px;font-family:Oxanium;-inkscape-font-specification:'Oxanium, @wght=400';font-variation-settings:'wght' 400"
           id="tspan24553">sekt po miejskie służby ratunkowe.
</tspan></tspan><tspan
         x="10.851562"
         y="563.40242"
         id="tspan24559"><tspan
           style="font-size:19.0175px;font-family:Oxanium;-inkscape-font-specification:'Oxanium, @wght=400';font-variation-settings:'wght' 400"
           id="tspan24557">
</tspan></tspan><tspan
         x="10.851562"
         y="589.00239"
         id="tspan24563"><tspan
           dx="0 0 0 0 0 0 0 0 13.71804 0 0 0 0 0 0 0 0 0 0 0 0 13.718047 0 0 13.718047"
           style="font-size:19.0175px;font-family:Oxanium;-inkscape-font-specification:'Oxanium, @wght=400';font-variation-settings:'wght' 400"
           id="tspan24561">Grafiki wygenerowane za pomocą: </tspan></tspan><tspan
         x="10.851562"
         y="614.60237"
         id="tspan24567"><tspan
           dx="0 0 0 0 0 0 0 0 34.854797"
           style="font-size:19.0175px;font-family:Oxanium;-inkscape-font-specification:'Oxanium, @wght=400';font-variation-settings:'wght' 400"
           id="tspan24565">Craiyon (https://www.craiyon.com).
</tspan></tspan><tspan
         x="10.851562"
         y="640.20234"
         id="tspan24571"><tspan
           style="font-size:19.0175px;font-family:Oxanium;-inkscape-font-specification:'Oxanium, @wght=400';font-variation-settings:'wght' 400"
           id="tspan24569">
</tspan></tspan><tspan
         x="10.851562"
         y="665.80232"
         id="tspan24579"><tspan
           dx="0 0 0 0 0 0 0 0 5.4707408 0 0 0 5.4707484"
           style="font-size:19.0175px;font-family:Oxanium;-inkscape-font-specification:'Oxanium, @wght=400';font-variation-settings:'wght' 400"
           id="tspan24573">Autorem gry jest: </tspan><tspan
           dx="5.4707484 0 0 0 0 0 5.4707484"
           style="font-size:19.0175px;font-family:Oxanium;-inkscape-font-specification:'Oxanium, @wght=700';font-variation-settings:'wght' 700"
           id="tspan24575">Oskar Świda</tspan><tspan
           dx="0 0 5.4707637 5.4707332 5.4707637 5.4707332 5.4707332"
           style="font-size:19.0175px;font-family:Oxanium;-inkscape-font-specification:'Oxanium, @wght=400';font-variation-settings:'wght' 400"
           id="tspan24577">.     
</tspan></tspan><tspan
         x="10.851562"
         y="691.40229"
         id="tspan24583"><tspan
           style="font-size:19.0175px;font-family:Oxanium;-inkscape-font-specification:'Oxanium, @wght=400';font-variation-settings:'wght' 400"
           id="tspan24581">
</tspan></tspan><tspan
         x="10.851562"
         y="717.00227"
         id="tspan24587"><tspan
           dx="0 0 0 0 0 0 19.597637 0 0 19.597633 0 0 0 0 0 0 0 0 19.597641 0 0 0 0 0 0 0 0 19.597626"
           style="font-size:19.0175px;font-family:Oxanium;-inkscape-font-specification:'Oxanium, @wght=400';font-variation-settings:'wght' 400"
           id="tspan24585">Tekst na licencji CC-BY-SA 4.0.
</tspan></tspan><tspan
         x="10.851562"
         y="742.60225"
         id="tspan24591"><tspan
           style="font-size:19.0175px;font-family:Oxanium;-inkscape-font-specification:'Oxanium, @wght=400';font-variation-settings:'wght' 400"
           id="tspan24589">
</tspan></tspan><tspan
         x="10.851562"
         y="768.20222"
         id="tspan24595"><tspan
           dx="0 0 0 0 5.3047824 0 0 0 0 0 0 0 5.3047786 0 0 0 0 0 0 5.3047786 0 0 0 0 0 0 0 0 0 0 0 5.3047786"
           style="font-size:19.0175px;font-family:Oxanium;-inkscape-font-specification:'Oxanium, @wght=400';font-variation-settings:'wght' 400"
           id="tspan24593">Aby uzyskać więcej informacji, zajrzyj </tspan></tspan><tspan
         x="10.851562"
         y="793.8022"
         id="tspan24599"><tspan
           dx="0 0 0 6.2048621 0 0 0 0 0 0 0 6.204864 6.204864 6.204864 6.204864 6.2048564 6.204864 6.204864 6.204864 6.204864 6.204864 6.204864 6.204864 6.204864 6.204864 6.2048488 6.204864 6.2048793 6.204864 6.204864 6.204864 6.204864 6.2048335 6.204864"
           style="font-size:19.0175px;font-family:Oxanium;-inkscape-font-specification:'Oxanium, @wght=400';font-variation-settings:'wght' 400"
           id="tspan24597">na stronę:                       
</tspan></tspan><tspan
         x="10.851562"
         y="819.40217"
         id="tspan24603"><tspan
           style="font-size:19.0175px;font-family:Oxanium;-inkscape-font-specification:'Oxanium, @wght=400';font-variation-settings:'wght' 400"
           id="tspan24601">https://oswida.github.io/cyber/</tspan></tspan></text>
    <text
       xml:space="preserve"
       id="text16605-6"
       style="font-style:normal;font-weight:normal;font-size:40px;line-height:0.64;font-family:sans-serif;text-align:justify;letter-spacing:-0.783724px;white-space:pre;shape-inside:url(#rect16607-3);fill:#000000;fill-opacity:1;stroke:none"
       x="156.10863"
       y="0"
       transform="matrix(0.96528318,0,0,1,404.80987,-0.21651383)"><tspan
         x="10.851562"
         y="128.20234"
         id="tspan24607"><tspan
           dx="0 0 0 5.6343203 0 0 0 5.6343184 0 0 0 5.6343184 0 0 0 0 0 5.6343184 0 0 0 0 0 0 0 5.6343184 0 5.6343184"
           style="font-size:18.9994px;font-family:Oxanium;-inkscape-font-specification:'Oxanium, @wght=400';font-variation-settings:'wght' 400"
           id="tspan24605">Ta gra nie mogła powstać w próżni. </tspan></tspan><tspan
         x="10.851562"
         y="153.80235"
         id="tspan24611"><tspan
           dx="0 0 0 0 0 0 0 0 10.822867 0 0 0 0 0 0 0 0 0 0 0 10.822871 0 0 0 0 0 10.822856 0 0 0 0 10.822841"
           style="font-size:18.9994px;font-family:Oxanium;-inkscape-font-specification:'Oxanium, @wght=400';font-variation-settings:'wght' 400"
           id="tspan24609">Poniżej znajdziecie listę osób oraz </tspan></tspan><tspan
         x="10.851562"
         y="179.40236"
         id="tspan24615"><tspan
           dx="0 0 0 0 0 0 0 0 0 0 0 0 0.89322966 0 0 0 0 0 0.89322966 0 0 0 0 0 0 0 0 0.89322966 0 0 0.89322966 0 0 0.89324492"
           style="font-size:18.9994px;font-family:Oxanium;-inkscape-font-specification:'Oxanium, @wght=400';font-variation-settings:'wght' 400"
           id="tspan24613">materiałów, które wpłynęły na to czym </tspan></tspan><tspan
         x="10.851562"
         y="205.00236"
         id="tspan24619"><tspan
           dx="0 0 0 0 0 11.875287 0 11.875285 0 0 0 11.875285 0 0 0 0 0 0 0 11.875285 0 0 0 0 0 0 11.8753 11.87527 11.8753 11.87527 11.8753"
           style="font-size:18.9994px;font-family:Oxanium;-inkscape-font-specification:'Oxanium, @wght=400';font-variation-settings:'wght' 400"
           id="tspan24617">jest i jak wygląda Cyber.     
</tspan></tspan><tspan
         x="10.851562"
         y="230.60237"
         id="tspan24623"><tspan
           style="font-size:18.9994px;font-family:Oxanium;-inkscape-font-specification:'Oxanium, @wght=400';font-variation-settings:'wght' 400"
           id="tspan24621">
</tspan></tspan><tspan
         x="10.851562"
         y="256.20237"
         id="tspan24633"><tspan
           style="font-size:18.9994px;font-family:Oxanium;-inkscape-font-specification:'Oxanium, @wght=400';font-variation-settings:'wght' 400"
           id="tspan24625">◈</tspan><tspan
           dx="0 10.840205 0 0 0 0 0 10.840203"
           style="font-size:18.9994px;font-family:Oxanium;-inkscape-font-specification:'Oxanium, @wght=400';font-variation-settings:'wght' 400"
           id="tspan24627"> Cairn autorstwa </tspan><tspan
           dx="10.840211 0 0 0 0 0 0 0 10.840205"
           style="font-size:18.9994px;font-family:Oxanium;-inkscape-font-specification:'Oxanium, @wght=600';font-variation-settings:'wght' 600"
           id="tspan24629">Yochaia Gala</tspan><tspan
           dx="0 0 10.840205"
           style="font-size:18.9994px;font-family:Oxanium;-inkscape-font-specification:'Oxanium, @wght=400';font-variation-settings:'wght' 400"
           id="tspan24631">:  </tspan></tspan><tspan
         x="10.851562"
         y="281.80238"
         id="tspan24637"><tspan
           dx="0 0 0 0 0 0 0 0 0 26.685055 0 0 0 0 0 0 0 0 0 26.685055 0 0 0 26.68504"
           style="font-size:18.9994px;font-family:Oxanium;-inkscape-font-specification:'Oxanium, @wght=400';font-variation-settings:'wght' 400"
           id="tspan24635">podstawy mechaniki gry oraz </tspan></tspan><tspan
         x="10.851562"
         y="307.40239"
         id="tspan24641"><tspan
           dx="0 0 0 0 0 0 0 0 0 0 0 0 0 4.7668028 0 0 4.7668104 0 0 0 0 0 4.7668104 0 0 0 0 4.7668104"
           style="font-size:18.9994px;font-family:Oxanium;-inkscape-font-specification:'Oxanium, @wght=400';font-variation-settings:'wght' 400"
           id="tspan24639">determinacja do tego, żeby stworzyć </tspan></tspan><tspan
         x="10.851562"
         y="333.00239"
         id="tspan24645"><tspan
           dx="0 0 0 0 6.9163389 0 0 0 0 0 0 0 0 0 6.9163313 6.9163465 6.9163313 6.9163465 6.9163313 6.9163465 6.9163313 6.9163465 6.9163313 6.9163465 6.9163313 6.9163465 6.9163313 6.9163465 6.9163465 6.916316 6.9163465 6.9163465"
           style="font-size:18.9994px;font-family:Oxanium;-inkscape-font-specification:'Oxanium, @wght=400';font-variation-settings:'wght' 400"
           id="tspan24643">coś własnego,                  
</tspan></tspan><tspan
         x="10.851562"
         y="358.6024"
         id="tspan24655"><tspan
           style="font-size:18.9994px;font-family:Oxanium;-inkscape-font-specification:'Oxanium, @wght=400';font-variation-settings:'wght' 400"
           id="tspan24647">◈</tspan><tspan
           dx="0 9.9966402 0 0 0 0 9.9966402"
           style="font-size:18.9994px;font-family:Oxanium;-inkscape-font-specification:'Oxanium, @wght=400';font-variation-settings:'wght' 400"
           id="tspan24649"> Shit Future </tspan><tspan
           dx="9.9966364 0 0 0 0 0 0 0 0 9.9966383"
           style="font-size:18.9994px;font-family:Oxanium;-inkscape-font-specification:'Oxanium, @wght=600';font-variation-settings:'wght' 600"
           id="tspan24651">Michaela Rastona</tspan><tspan
           dx="0 0 9.9966383"
           style="font-size:18.9994px;font-family:Oxanium;-inkscape-font-specification:'Oxanium, @wght=400';font-variation-settings:'wght' 400"
           id="tspan24653">:  </tspan></tspan><tspan
         x="10.851562"
         y="384.2024"
         id="tspan24659"><tspan
           dx="0 0 0 0 0 0 0 0 0 25.554615 0 0 0 0 0 0 0 0 0 25.554623 0 0 0 25.554607"
           style="font-size:18.9994px;font-family:Oxanium;-inkscape-font-specification:'Oxanium, @wght=400';font-variation-settings:'wght' 400"
           id="tspan24657">genialne procedury dla cyber-</tspan></tspan><tspan
         x="10.851562"
         y="409.80241"
         id="tspan24663"><tspan
           dx="0 0 0 0 0 0 0 0 0 0 7.2033491 0 0 0 0 7.2033491 7.2033491 7.2033491 7.2033491 7.2033491 7.2033644 7.2033491 7.2033491 7.2033491 7.2033491 7.2033491 7.2033644 7.2033339 7.2033644 7.2033339 7.2033644"
           style="font-size:18.9994px;font-family:Oxanium;-inkscape-font-specification:'Oxanium, @wght=400';font-variation-settings:'wght' 400"
           id="tspan24661">punkowego rpg,                
</tspan></tspan><tspan
         x="10.851562"
         y="435.40242"
         id="tspan24673"><tspan
           style="font-size:18.9994px;font-family:Oxanium;-inkscape-font-specification:'Oxanium, @wght=400';font-variation-settings:'wght' 400"
           id="tspan24665">◈</tspan><tspan
           dx="0 1.6388619 0 0 0 0 0 0 0 0 0 0 1.6388638"
           style="font-size:18.9994px;font-family:Oxanium;-inkscape-font-specification:'Oxanium, @wght=400';font-variation-settings:'wght' 400"
           id="tspan24667"> Evolution: Pulse </tspan><tspan
           dx="1.6388714 0 0 0 0 0 0 0 1.6388657"
           style="font-size:18.9994px;font-family:Oxanium;-inkscape-font-specification:'Oxanium, @wght=600';font-variation-settings:'wght' 600"
           id="tspan24669">Alberto Tronchiego</tspan><tspan
           style="font-size:18.9994px;font-family:Oxanium;-inkscape-font-specification:'Oxanium, @wght=400';font-variation-settings:'wght' 400"
           id="tspan24671"> </tspan></tspan><tspan
         x="10.851562"
         y="461.00242"
         id="tspan24681"><tspan
           style="font-size:18.9994px;font-family:Oxanium;-inkscape-font-specification:'Oxanium, @wght=400';font-variation-settings:'wght' 400"
           id="tspan24675">i </tspan><tspan
           dx="9.8791046 0 0 0 0 0 0 0 9.8791056"
           style="font-size:18.9994px;font-family:Oxanium;-inkscape-font-specification:'Oxanium, @wght=600';font-variation-settings:'wght' 600"
           id="tspan24677">Daniela Comerci</tspan><tspan
           dx="0 0 9.8791151 9.8790998 0 0 0 0 9.8790846 0 0 0 9.8790998"
           style="font-size:18.9994px;font-family:Oxanium;-inkscape-font-specification:'Oxanium, @wght=400';font-variation-settings:'wght' 400"
           id="tspan24679">:  sama gra nie </tspan></tspan><tspan
         x="10.851562"
         y="486.60243"
         id="tspan24685"><tspan
           dx="0 0 0 0 0 0 0 0 15.116717 0 0 0 15.116717 0 15.116725 0 0 0 0 0 0 0 0 0 0 15.116725"
           style="font-size:18.9994px;font-family:Oxanium;-inkscape-font-specification:'Oxanium, @wght=400';font-variation-settings:'wght' 400"
           id="tspan24683">plasuje się w klasycznym nurcie </tspan></tspan><tspan
         x="10.851562"
         y="512.20244"
         id="tspan24689"><tspan
           dx="0 0 0 0 0 0 0 0 0 0 0 18.311085 0 0 0 18.311092 0 0 0 0 0 0 0 0 0 0 18.311092"
           style="font-size:18.9994px;font-family:Oxanium;-inkscape-font-specification:'Oxanium, @wght=400';font-variation-settings:'wght' 400"
           id="tspan24687">cyberpunku ale zachwyciła mnie </tspan></tspan><tspan
         x="10.851562"
         y="537.80244"
         id="tspan24693"><tspan
           dx="0 0 0 0 0 0 0 0 0 0 49.429859 0 0 0 0 0 0 0 49.429867"
           style="font-size:18.9994px;font-family:Oxanium;-inkscape-font-specification:'Oxanium, @wght=400';font-variation-settings:'wght' 400"
           id="tspan24691">koncepcja relacji pomiędzy </tspan></tspan><tspan
         x="10.851562"
         y="563.40242"
         id="tspan24697"><tspan
           dx="0 0 0 0 0 0 0 0 0 0 0 0 2.4250977 0 2.4251053 0 0 0 0 0 0 0 2.4251053 0 2.4251053"
           style="font-size:18.9994px;font-family:Oxanium;-inkscape-font-specification:'Oxanium, @wght=400';font-variation-settings:'wght' 400"
           id="tspan24695">człowiekiem a maszyną i niesamowity </tspan></tspan><tspan
         x="10.851562"
         y="589.00239"
         id="tspan24701"><tspan
           dx="0 0 0 0 0 0 0 0 6.7463026 0 0 6.7463026 0 0 0 0 0 0 0 0 0 6.7463026 0 0 0 0 0 0 0 6.7463026"
           style="font-size:18.9994px;font-family:Oxanium;-inkscape-font-specification:'Oxanium, @wght=400';font-variation-settings:'wght' 400"
           id="tspan24699">nastrój do zadawania pytania “czym </tspan></tspan><tspan
         x="10.851562"
         y="614.60237"
         id="tspan24705"><tspan
           dx="0 0 0 0 0 15.486726 0 0 0 0 0 0 0 0 0 0 0 0 0 0 0 0 0 15.48672 15.486735 15.48672 15.486735 15.48672 15.48672"
           style="font-size:18.9994px;font-family:Oxanium;-inkscape-font-specification:'Oxanium, @wght=400';font-variation-settings:'wght' 400"
           id="tspan24703">jest człowieczeństwo”.      
</tspan></tspan><tspan
         x="10.851562"
         y="640.20234"
         id="tspan24711"><tspan
           style="font-size:18.9994px;font-family:Oxanium;-inkscape-font-specification:'Oxanium, @wght=400';font-variation-settings:'wght' 400"
           id="tspan24707">◈</tspan><tspan
           dx="0 0.50437087 0 0 0 0 0.50437278 0 0 0 0 0 0 0 0 0 0 0 0.50436515 0 0 0 0 0 0.50436515 0 0 0 0 0 0 0 0.50436515 0 0 0 0.50434989"
           style="font-size:18.9994px;font-family:Oxanium;-inkscape-font-specification:'Oxanium, @wght=400';font-variation-settings:'wght' 400"
           id="tspan24709"> Cała literatura, którą zalicza się (bądź </tspan></tspan><tspan
         x="10.851562"
         y="665.80232"
         id="tspan24715"><tspan
           dx="0 0 0 0 0 17.265965 0 0 17.265965 0 0 0 0 0 0 17.265972 0 17.265972 0 0 0 17.265972"
           style="font-size:18.9994px;font-family:Oxanium;-inkscape-font-specification:'Oxanium, @wght=400';font-variation-settings:'wght' 400"
           id="tspan24713">nie) do nurtu. W tym utwory: </tspan></tspan><tspan
         x="10.851562"
         y="691.40229"
         id="tspan24719"><tspan
           dx="0 0 0 0 0 0 0 0 0 0 0 7.9326963 0 0 0 0 0 0 0 0 0 0 0 0 7.932704 7.9326887"
           style="font-size:18.9994px;font-family:Oxanium;-inkscape-font-specification:'Oxanium, @wght=600';font-variation-settings:'wght' 600"
           id="tspan24717">W.Gibsona, B.Sterlinga,  N.Stephen-</tspan></tspan><tspan
         x="10.851562"
         y="717.00227"
         id="tspan24725"><tspan
           dx="0 0 0 0 0 4.6248236 0 4.6248274"
           style="font-size:18.9994px;font-family:Oxanium;-inkscape-font-specification:'Oxanium, @wght=600';font-variation-settings:'wght' 600"
           id="tspan24721">sona i R.Morgana</tspan><tspan
           dx="0 0 4.6248274 4.6248274 4.6248274 4.6248274 4.6248274 4.6248274 4.6248274 4.6248274 4.6248274 4.6248274 4.6248274 4.6248274 4.6248274 4.6247969 4.6248274 4.6248426 4.6248274 4.6248121 4.6248274"
           style="font-size:18.9994px;font-family:Oxanium;-inkscape-font-specification:'Oxanium, @wght=400';font-variation-settings:'wght' 400"
           id="tspan24723">.                   
</tspan></tspan><tspan
         x="10.851562"
         y="742.60225"
         id="tspan24731"><tspan
           style="font-size:18.9994px;font-family:Oxanium;-inkscape-font-specification:'Oxanium, @wght=400';font-variation-settings:'wght' 400"
           id="tspan24727">◈</tspan><tspan
           dx="0 6.8485746 0 0 0 0 0 0 0 0 0 0 0 6.8485727 0 0 0 0 0 0 6.848588 0 0 0 0 0 0 0 6.848588 0 6.8485727 0 0 0 0 6.8485727"
           style="font-size:18.9994px;font-family:Oxanium;-inkscape-font-specification:'Oxanium, @wght=400';font-variation-settings:'wght' 400"
           id="tspan24729"> Niezliczone filmy, komiksy i gry. 
</tspan></tspan><tspan
         x="10.851562"
         y="768.20222"
         id="tspan24735"><tspan
           dx="0 0 2.1417115 0 0 0 0 2.1417115 0 0 0 0 0 2.1417115 0 0 2.1417191 0 0 0 2.1417038 0 0 0 0 0 2.1417038 0 0 0 0 2.1417191"
           style="font-size:18.9994px;font-family:Oxanium;-inkscape-font-specification:'Oxanium, @wght=400';font-variation-settings:'wght' 400"
           id="tspan24733">W tym: Ghost in the Shell oraz Blame!
</tspan></tspan><tspan
         x="10.851562"
         y="793.8022"
         id="tspan24741"><tspan
           style="font-size:18.9994px;font-family:Oxanium;-inkscape-font-specification:'Oxanium, @wght=400';font-variation-settings:'wght' 400"
           id="tspan24737">◈</tspan><tspan
           dx="0 8.7996759 0 0 0 0 0 0 0 0 8.7996759 0 0 0 0 0 0 0 0 0 8.7996836 0 0 0 8.7996836 0 0 0 0 8.7996836"
           style="font-size:18.9994px;font-family:Oxanium;-inkscape-font-specification:'Oxanium, @wght=400';font-variation-settings:'wght' 400"
           id="tspan24739"> Wreszcie klasyczne gry RPG, na </tspan></tspan><tspan
         x="10.851562"
         y="819.40217"
         id="tspan24745"><tspan
           dx="0 0 0 0 0 0 0 0 23.909565 0 0 0 0 0 0 0 0 0 0 23.909557 0 0 0 0 0 23.909557"
           style="font-size:18.9994px;font-family:Oxanium;-inkscape-font-specification:'Oxanium, @wght=400';font-variation-settings:'wght' 400"
           id="tspan24743">których wyrastałem czyli Seria </tspan></tspan><tspan
         x="10.851562"
         y="845.00215"
         id="tspan24749"><tspan
           dx="0 0 0 0 0 0 0 0 0 0 10.921405 0 0 0 0 10.921397 0 0 0 0 10.921412 0 0 0 0 0 0 0 0 0 10.921412"
           style="font-size:18.9994px;font-family:Oxanium;-inkscape-font-specification:'Oxanium, @wght=400';font-variation-settings:'wght' 400"
           id="tspan24747">Cyberpunk 2020 oraz Shadowrun 
</tspan></tspan><tspan
         x="10.851562"
         y="870.60212"
         id="tspan24753"><tspan
           dx="0 0 0 -0.55899507 0 0 0 0 0 0 -0.55899507 0 0 0 0 0 0 0 0 0 -0.55899507 0 0 0 0 0 -0.55899507 0 0 0 0 0 -0.55899507 -0.55899507 -0.55899507 -0.55899507 -0.55899507 -0.55899507 -0.55899507 -0.55899507 -0.55899507 -0.55899507 -0.55899507 -0.55899507 -0.55899507 -0.55899507 -0.55899507 -0.55899507"
           style="font-size:18.9994px;font-family:Oxanium;-inkscape-font-specification:'Oxanium, @wght=400';font-variation-settings:'wght' 400"
           id="tspan24751">(w wersji wydawanej przez FASA)                
</tspan></tspan><tspan
         x="10.851562"
         y="896.2021"
         id="tspan24759"><tspan
           style="font-size:18.9994px;font-family:Oxanium;-inkscape-font-specification:'Oxanium, @wght=400';font-variation-settings:'wght' 400"
           id="tspan24755">◈</tspan><tspan
           dx="0 1.996608 0 0 0 1.9966061 0 0 0 0 0 0 0 0 1.9966061 0 0 0 1.9966137 0 0 0 0 0 1.9965985 0 0 0 0 0 0 0 1.9966137"
           style="font-size:18.9994px;font-family:Oxanium;-inkscape-font-specification:'Oxanium, @wght=400';font-variation-settings:'wght' 400"
           id="tspan24757"> Nie zabrakło też kilku graczy, którzy </tspan></tspan><tspan
         x="10.851562"
         y="921.80207"
         id="tspan24763"><tspan
           dx="0 0 0 0 0 0 0 0 0 0 0 9.8040037 0 0 0 0 0 0 0 0 0 0 0 9.8040113 0 0 9.8039961 0 0 0 0 0 0 0 0 0 9.8040113"
           style="font-size:18.9994px;font-family:Oxanium;-inkscape-font-specification:'Oxanium, @wght=400';font-variation-settings:'wght' 400"
           id="tspan24761">cierpliwie przeglądali te materiały i </tspan></tspan><tspan
         x="10.851562"
         y="947.40205"
         id="tspan24767"><tspan
           dx="0 0 0 0 0 0 0 0 0 0 12.763232 0 0 0 0 12.76324 0 0 0 0 0 0 12.76324"
           style="font-size:18.9994px;font-family:Oxanium;-inkscape-font-specification:'Oxanium, @wght=400';font-variation-settings:'wght' 400"
           id="tspan24765">wspomogli mnie swoimi uwagami: </tspan></tspan><tspan
         x="10.851562"
         y="973.00203"
         id="tspan24773"><tspan
           style="font-size:18.9994px;font-family:Oxanium;-inkscape-font-specification:'Oxanium, @wght=600';font-variation-settings:'wght' 600"
           id="tspan24769">Puncur, Pio</tspan><tspan
           style="font-size:18.9994px;font-family:Oxanium;-inkscape-font-specification:'Oxanium, @wght=400';font-variation-settings:'wght' 400"
           id="tspan24771"> - dzięki.</tspan></tspan></text>
    <text
       xml:space="preserve"
       id="text129626"
       style="font-style:normal;font-weight:normal;font-size:40px;line-height:1.25;font-family:sans-serif;white-space:pre;shape-inside:url(#rect129628);fill:#000000;fill-opacity:1;stroke:none" />
    <text
       xml:space="preserve"
       id="text309678"
       style="font-style:normal;font-weight:normal;font-size:40px;line-height:1.25;font-family:sans-serif;white-space:pre;shape-inside:url(#rect309680);fill:#000000;fill-opacity:1;stroke:none" />
    <g
       id="g1727"
       transform="translate(-716.7927,579.83909)">
      <g
         inkscape:label="QR Code: https://oswida.github.io/cyber/"
         transform="matrix(0.74967037,0,0,0.74967037,981.51888,271.71109)"
         id="g46344">
        <rect
           x="0"
           y="0"
           width="132"
           height="132"
           style="fill:#ffffff;stroke:none"
           id="rect46338" />
        <g
           style="fill:#000000;stroke:none"
           id="g46342">
          <path
             d="m 115.6,116 h -7.2 c -0.22091,0 -0.4,-0.17909 -0.4,-0.4 v -7.2 c 0,-0.22091 0.17909,-0.4 0.4,-0.4 h 3.6 v 3.6 c 0,0.22091 0.17909,0.4 0.4,0.4 h 3.2 c 0.22091,0 0.4,0.17909 0.4,0.4 v 3.2 c 0,0.22091 -0.17909,0.4 -0.4,0.4 z m -20,0 H 76.4 c -0.220914,0 -0.4,-0.17909 -0.4,-0.4 v -3.2 c 0,-0.22091 -0.179086,-0.4 -0.4,-0.4 h -3.2 c -0.220914,0 -0.4,0.17909 -0.4,0.4 v 3.2 c 0,0.22091 -0.179086,0.4 -0.4,0.4 H 60.4 C 60.179086,116 60,115.82091 60,115.6 V 112 h 3.6 c 0.220914,0 0.4,-0.17909 0.4,-0.4 v -3.2 c 0,-0.22091 0.179086,-0.4 0.4,-0.4 h 7.2 c 0.220914,0 0.4,-0.17909 0.4,-0.4 v -3.2 c 0,-0.22091 0.179086,-0.4 0.4,-0.4 h 3.2 c 0.220914,0 0.4,-0.17909 0.4,-0.4 v -3.2 c 0,-0.22091 0.179086,-0.4 0.4,-0.4 H 80 v 3.6 c 0,0.22091 0.179086,0.4 0.4,0.4 h 3.2 c 0.220914,0 0.4,0.17909 0.4,0.4 v 3.2 c 0,0.22091 0.179086,0.4 0.4,0.4 h 7.2 c 0.220914,0 0.4,0.17909 0.4,0.4 v 3.2 c 0,0.22091 0.179086,0.4 0.4,0.4 H 96 v 3.6 c 0,0.22091 -0.179086,0.4 -0.4,0.4 z m -44,0 h -3.2 c -0.220914,0 -0.4,-0.17909 -0.4,-0.4 v -11.2 c 0,-0.22091 0.179086,-0.4 0.4,-0.4 H 56 v 3.6 c 0,0.22091 0.179086,0.4 0.4,0.4 h 3.2 c 0.220914,0 0.4,0.17909 0.4,0.4 v 3.6 h -7.6 c -0.220914,0 -0.4,0.17909 -0.4,0.4 v 3.2 c 0,0.22091 -0.179086,0.4 -0.4,0.4 z m -8,0 H 16.4 C 16.179086,116 16,115.82091 16,115.6 V 88.4 C 16,88.179086 16.179086,88 16.4,88 h 27.2 c 0.220914,0 0.4,0.179086 0.4,0.4 v 27.2 c 0,0.22091 -0.179086,0.4 -0.4,0.4 z m 60,-4 H 96 v -7.6 c 0,-0.22091 -0.179086,-0.4 -0.4,-0.4 h -3.2 c -0.220914,0 -0.4,-0.17909 -0.4,-0.4 v -3.2 C 92,100.17909 91.820914,100 91.6,100 H 80 V 92.4 C 80,92.179086 79.820914,92 79.6,92 H 76.4 C 76.179086,92 76,91.820914 76,91.6 V 84 h 3.6 C 79.820914,84 80,83.820914 80,83.6 V 80 h 7.6 C 87.820914,80 88,79.820914 88,79.6 V 76.4 C 88,76.179086 87.820914,76 87.6,76 H 84.4 C 84.179086,76 84,75.820914 84,75.6 V 72.4 C 84,72.179086 84.179086,72 84.4,72 h 3.2 C 87.820914,72 88,71.820914 88,71.6 V 68.4 C 88,68.179086 87.820914,68 87.6,68 H 76.4 C 76.179086,68 76,67.820914 76,67.6 V 64 h 3.6 C 79.820914,64 80,63.820914 80,63.6 V 40.4 C 80,40.179086 79.820914,40 79.6,40 H 76 V 36.4 C 76,36.179086 75.820914,36 75.6,36 H 72.4 C 72.179086,36 72,36.179086 72,36.4 V 40 H 68 V 32.4 C 68,32.179086 68.179086,32 68.4,32 h 3.2 C 71.820914,32 72,31.820914 72,31.6 V 24.4 C 72,24.179086 71.820914,24 71.6,24 H 60 V 16.4 C 60,16.179086 60.179086,16 60.4,16 h 3.2 c 0.220914,0 0.4,0.179086 0.4,0.4 v 3.2 c 0,0.220914 0.179086,0.4 0.4,0.4 H 75.6 C 75.820914,20 76,19.820914 76,19.6 V 16.4 C 76,16.179086 76.179086,16 76.4,16 h 3.2 c 0.220914,0 0.4,0.179086 0.4,0.4 v 3.2 c 0,0.220914 0.179086,0.4 0.4,0.4 h 3.2 c 0.220914,0 0.4,0.179086 0.4,0.4 v 7.2 C 84,27.820914 83.820914,28 83.6,28 H 80.4 C 80.179086,28 80,27.820914 80,27.6 V 24.4 C 80,24.179086 79.820914,24 79.6,24 H 76.4 C 76.179086,24 76,24.179086 76,24.4 v 7.2 c 0,0.220914 0.179086,0.4 0.4,0.4 h 3.2 c 0.220914,0 0.4,0.179086 0.4,0.4 v 3.2 c 0,0.220914 0.179086,0.4 0.4,0.4 h 3.2 c 0.220914,0 0.4,0.179086 0.4,0.4 v 11.2 c 0,0.220914 0.179086,0.4 0.4,0.4 h 7.2 c 0.220914,0 0.4,0.179086 0.4,0.4 v 7.2 c 0,0.220914 0.179086,0.4 0.4,0.4 h 3.2 c 0.220914,0 0.4,0.179086 0.4,0.4 V 60 H 92.4 C 92.179086,60 92,60.179086 92,60.4 v 11.2 c 0,0.220914 0.179086,0.4 0.4,0.4 h 3.2 c 0.220914,0 0.4,0.179086 0.4,0.4 V 76 H 92.4 C 92.179086,76 92,76.179086 92,76.4 v 3.2 c 0,0.220914 0.179086,0.4 0.4,0.4 h 3.2 C 95.820914,80 96,79.820914 96,79.6 V 76 h 3.6 c 0.220914,0 0.4,0.179086 0.4,0.4 v 3.2 c 0,0.220914 0.17909,0.4 0.4,0.4 h 3.2 c 0.22091,0 0.4,0.179086 0.4,0.4 v 19.2 c 0,0.220914 0.17909,0.4 0.4,0.4 h 3.6 v 3.6 c 0,0.22091 -0.17909,0.4 -0.4,0.4 h -7.2 c -0.22091,0 -0.4,0.17909 -0.4,0.4 v 3.2 c 0,0.22091 0.17909,0.4 0.4,0.4 h 3.2 c 0.22091,0 0.4,0.17909 0.4,0.4 v 3.2 c 0,0.22091 -0.17909,0.4 -0.4,0.4 z M 40,111.6 V 92.4 C 40,92.179086 39.820914,92 39.6,92 H 20.4 C 20.179086,92 20,92.179086 20,92.4 v 19.2 c 0,0.22091 0.179086,0.4 0.4,0.4 h 19.2 c 0.220914,0 0.4,-0.17909 0.4,-0.4 z M 115.6,108 H 112 v -3.6 c 0,-0.22091 0.17909,-0.4 0.4,-0.4 h 3.2 c 0.22091,0 0.4,0.17909 0.4,0.4 v 3.2 c 0,0.22091 -0.17909,0.4 -0.4,0.4 z m -80,0 H 24.4 C 24.179086,108 24,107.82091 24,107.6 V 96.4 C 24,96.179086 24.179086,96 24.4,96 h 11.2 c 0.220914,0 0.4,0.179086 0.4,0.4 v 11.2 c 0,0.22091 -0.179086,0.4 -0.4,0.4 z m 24,-4 H 56 v -4 h 4 v 3.6 c 0,0.22091 -0.179086,0.4 -0.4,0.4 z m 52,-4 H 108 v -3.6 c 0,-0.220914 0.17909,-0.4 0.4,-0.4 h 3.6 v 3.6 c 0,0.220914 -0.17909,0.4 -0.4,0.4 z m -40,0 H 60 v -4 h 3.6 C 63.820914,96 64,95.820914 64,95.6 V 92.4 C 64,92.179086 64.179086,92 64.4,92 h 3.2 C 67.820914,92 68,91.820914 68,91.6 V 88 h 3.6 c 0.220914,0 0.4,0.179086 0.4,0.4 v 11.2 c 0,0.220914 -0.179086,0.4 -0.4,0.4 z m -16,0 H 48.4 C 48.179086,100 48,99.820914 48,99.6 V 80 h 7.6 c 0.220914,0 0.4,0.179086 0.4,0.4 V 92 H 52.4 C 52.179086,92 52,92.179086 52,92.4 v 3.2 c 0,0.220914 0.179086,0.4 0.4,0.4 H 56 v 4 z m 60,-4 H 112 v -3.6 c 0,-0.220914 -0.17909,-0.4 -0.4,-0.4 h -3.2 c -0.22091,0 -0.4,-0.179086 -0.4,-0.4 v -7.2 c 0,-0.220914 0.17909,-0.4 0.4,-0.4 h 7.2 c 0.22091,0 0.4,0.179086 0.4,0.4 v 11.2 c 0,0.220914 -0.17909,0.4 -0.4,0.4 z M 96,95.6 V 84.4 C 96,84.179086 95.820914,84 95.6,84 H 84.4 C 84.179086,84 84,84.179086 84,84.4 v 11.2 c 0,0.220914 0.179086,0.4 0.4,0.4 H 95.6 C 95.820914,96 96,95.820914 96,95.6 Z M 59.6,96 H 56 v -4 h 3.6 c 0.220914,0 0.4,0.179086 0.4,0.4 V 96 Z m 32,-4 H 88.4 C 88.179086,92 88,91.820914 88,91.6 V 88.4 C 88,88.179086 88.179086,88 88.4,88 h 3.2 c 0.220914,0 0.4,0.179086 0.4,0.4 v 3.2 c 0,0.220914 -0.179086,0.4 -0.4,0.4 z m -24,-4 H 64.4 C 64.179086,88 64,87.820914 64,87.6 V 80.4 C 64,80.179086 64.179086,80 64.4,80 h 3.2 C 67.820914,80 68,79.820914 68,79.6 V 72.4 C 68,72.179086 67.820914,72 67.6,72 H 64.4 C 64.179086,72 64,71.820914 64,71.6 V 68 h 3.6 C 67.820914,68 68,67.820914 68,67.6 V 60.4 C 68,60.179086 68.179086,60 68.4,60 h 7.2 c 0.220914,0 0.4,0.179086 0.4,0.4 V 64 H 72.4 C 72.179086,64 72,64.179086 72,64.4 v 7.2 c 0,0.220914 0.179086,0.4 0.4,0.4 h 3.2 c 0.220914,0 0.4,0.179086 0.4,0.4 V 76 H 72.4 C 72.179086,76 72,76.179086 72,76.4 v 3.2 c 0,0.220914 0.179086,0.4 0.4,0.4 H 76 v 4 H 68.4 C 68.179086,84 68,84.179086 68,84.4 V 88 Z m -24,-4 H 36.4 C 36.179086,84 36,83.820914 36,83.6 V 76.4 C 36,76.179086 36.179086,76 36.4,76 H 40 v 3.6 c 0,0.220914 0.179086,0.4 0.4,0.4 H 44 v 3.6 c 0,0.220914 -0.179086,0.4 -0.4,0.4 z m -16,0 H 24.4 C 24.179086,84 24,83.820914 24,83.6 V 80 h 3.6 c 0.220914,0 0.4,0.179086 0.4,0.4 v 3.2 c 0,0.220914 -0.179086,0.4 -0.4,0.4 z m -8,0 H 16.4 C 16.179086,84 16,83.820914 16,83.6 V 80.4 C 16,80.179086 16.179086,80 16.4,80 H 20 v 3.6 c 0,0.220914 -0.179086,0.4 -0.4,0.4 z m 92,-4 h -3.2 c -0.22091,0 -0.4,-0.179086 -0.4,-0.4 v -3.2 c 0,-0.220914 -0.17909,-0.4 -0.4,-0.4 h -3.2 C 104.17909,76 104,75.820914 104,75.6 V 72 h 7.6 c 0.22091,0 0.4,-0.179086 0.4,-0.4 v -3.2 c 0,-0.220914 -0.17909,-0.4 -0.4,-0.4 h -3.2 c -0.22091,0 -0.4,-0.179086 -0.4,-0.4 v -7.2 c 0,-0.220914 -0.17909,-0.4 -0.4,-0.4 h -3.2 c -0.22091,0 -0.4,-0.179086 -0.4,-0.4 v -3.2 c 0,-0.220914 0.17909,-0.4 0.4,-0.4 h 7.2 c 0.22091,0 0.4,-0.179086 0.4,-0.4 v -3.2 c 0,-0.220914 0.17909,-0.4 0.4,-0.4 h 3.2 c 0.22091,0 0.4,0.179086 0.4,0.4 v 7.2 c 0,0.220914 -0.17909,0.4 -0.4,0.4 h -3.2 c -0.22091,0 -0.4,0.179086 -0.4,0.4 v 3.2 c 0,0.220914 0.17909,0.4 0.4,0.4 h 3.2 c 0.22091,0 0.4,0.179086 0.4,0.4 v 11.2 c 0,0.220914 -0.17909,0.4 -0.4,0.4 h -3.2 c -0.22091,0 -0.4,0.179086 -0.4,0.4 v 3.2 c 0,0.220914 -0.17909,0.4 -0.4,0.4 z m -32,0 H 76 v -4 h 3.6 c 0.220914,0 0.4,0.179086 0.4,0.4 V 80 Z m -32,0 H 44 v -4 h 4 v 4 z m -24,0 H 20 v -4 h 4 v 4 z m 36,-4 H 56.4 C 56.179086,76 56,75.820914 56,75.6 V 72.4 C 56,72.179086 56.179086,72 56.4,72 h 3.2 c 0.220914,0 0.4,0.179086 0.4,0.4 v 3.2 c 0,0.220914 -0.179086,0.4 -0.4,0.4 z m -8,0 H 48 v -4 h 3.6 c 0.220914,0 0.4,0.179086 0.4,0.4 v 3.2 c 0,0.220914 -0.179086,0.4 -0.4,0.4 z m -8,0 H 40 v -4 h 4 v 4 z m -12,0 H 24 V 72.4 C 24,72.179086 24.179086,72 24.4,72 h 3.2 C 27.820914,72 28,71.820914 28,71.6 V 68.4 C 28,68.179086 28.179086,68 28.4,68 h 3.2 C 31.820914,68 32,67.820914 32,67.6 V 64.4 C 32,64.179086 31.820914,64 31.6,64 H 28.4 C 28.179086,64 28,63.820914 28,63.6 V 56.4 C 28,56.179086 27.820914,56 27.6,56 H 24.4 C 24.179086,56 24,55.820914 24,55.6 V 52.4 C 24,52.179086 23.820914,52 23.6,52 H 16.4 C 16.179086,52 16,51.820914 16,51.6 V 48.4 C 16,48.179086 16.179086,48 16.4,48 h 11.2 c 0.220914,0 0.4,0.179086 0.4,0.4 v 3.2 c 0,0.220914 0.179086,0.4 0.4,0.4 h 3.2 C 31.820914,52 32,51.820914 32,51.6 V 48.4 C 32,48.179086 32.179086,48 32.4,48 H 47.6 C 47.820914,48 48,47.820914 48,47.6 V 40.4 C 48,40.179086 48.179086,40 48.4,40 h 3.2 c 0.220914,0 0.4,0.179086 0.4,0.4 v 3.2 c 0,0.220914 0.179086,0.4 0.4,0.4 h 3.2 C 55.820914,44 56,43.820914 56,43.6 V 36.4 C 56,36.179086 55.820914,36 55.6,36 H 52.4 C 52.179086,36 52,35.820914 52,35.6 V 32.4 C 52,32.179086 52.179086,32 52.4,32 h 7.2 C 59.820914,32 60,31.820914 60,31.6 V 28 h 3.6 c 0.220914,0 0.4,0.179086 0.4,0.4 V 40 H 60.4 C 60.179086,40 60,40.179086 60,40.4 V 51.6 C 60,51.820914 59.820914,52 59.6,52 H 56.4 C 56.179086,52 56,51.820914 56,51.6 V 48.4 C 56,48.179086 55.820914,48 55.6,48 H 52.4 C 52.179086,48 52,48.179086 52,48.4 v 7.2 c 0,0.220914 0.179086,0.4 0.4,0.4 h 3.2 c 0.220914,0 0.4,0.179086 0.4,0.4 v 3.2 C 56,59.820914 55.820914,60 55.6,60 H 48 V 56.4 C 48,56.179086 47.820914,56 47.6,56 H 44 V 52.4 C 44,52.179086 43.820914,52 43.6,52 H 36.4 C 36.179086,52 36,52.179086 36,52.4 v 3.2 C 36,55.820914 35.820914,56 35.6,56 H 32.4 C 32.179086,56 32,56.179086 32,56.4 v 3.2 c 0,0.220914 0.179086,0.4 0.4,0.4 H 40 v 3.6 c 0,0.220914 0.179086,0.4 0.4,0.4 H 44 v 4 H 40.4 C 40.179086,68 40,68.179086 40,68.4 V 72 H 32.4 C 32.179086,72 32,72.179086 32,72.4 v 3.2 c 0,0.220914 -0.179086,0.4 -0.4,0.4 z m -12,0 H 16.4 C 16.179086,76 16,75.820914 16,75.6 V 72.4 C 16,72.179086 16.179086,72 16.4,72 h 3.2 c 0.220914,0 0.4,0.179086 0.4,0.4 V 76 Z m 84,-4 h -3.2 C 100.17909,72 100,71.820914 100,71.6 V 64 h 3.6 c 0.22091,0 0.4,0.179086 0.4,0.4 V 72 Z m -56,0 H 44 v -4 h 4 v 4 z m 16,-4 H 60.4 C 60.179086,68 60,67.820914 60,67.6 V 60.4 C 60,60.179086 60.179086,60 60.4,60 h 3.2 c 0.220914,0 0.4,0.179086 0.4,0.4 V 68 Z m -12,0 H 48 v -4 h 3.6 c 0.220914,0 0.4,0.179086 0.4,0.4 v 3.2 c 0,0.220914 -0.179086,0.4 -0.4,0.4 z m -28,0 H 20.4 C 20.179086,68 20,67.820914 20,67.6 V 64 h 3.6 c 0.220914,0 0.4,0.179086 0.4,0.4 v 3.2 c 0,0.220914 -0.179086,0.4 -0.4,0.4 z m 76,-4 H 96.4 C 96.179086,64 96,63.820914 96,63.6 V 60 h 3.6 c 0.220914,0 0.4,0.179086 0.4,0.4 V 64 Z M 88,63.6 V 52.4 C 88,52.179086 87.820914,52 87.6,52 H 84.4 C 84.179086,52 84,52.179086 84,52.4 v 11.2 c 0,0.220914 0.179086,0.4 0.4,0.4 h 3.2 C 87.820914,64 88,63.820914 88,63.6 Z M 47.6,64 H 44 v -4 h 4 v 4 z m -28,0 H 16.4 C 16.179086,64 16,63.820914 16,63.6 V 60.4 C 16,60.179086 16.179086,60 16.4,60 h 3.2 c 0.220914,0 0.4,0.179086 0.4,0.4 V 64 Z m 24,-4 H 40 V 56.4 C 40,56.179086 40.179086,56 40.4,56 H 44 v 4 z m 32,-4 H 64.4 C 64.179086,56 64,55.820914 64,55.6 V 48.4 C 64,48.179086 64.179086,48 64.4,48 h 3.2 C 67.820914,48 68,47.820914 68,47.6 V 44 h 4 v 7.6 c 0,0.220914 0.179086,0.4 0.4,0.4 h 3.2 c 0.220914,0 0.4,0.179086 0.4,0.4 v 3.2 c 0,0.220914 -0.179086,0.4 -0.4,0.4 z m 32,-4 h -3.2 c -0.22091,0 -0.4,-0.179086 -0.4,-0.4 v -3.2 c 0,-0.220914 0.17909,-0.4 0.4,-0.4 h 3.2 c 0.22091,0 0.4,0.179086 0.4,0.4 v 3.2 c 0,0.220914 -0.17909,0.4 -0.4,0.4 z m 8,-8 H 88.4 C 88.179086,44 88,43.820914 88,43.6 V 16.4 C 88,16.179086 88.179086,16 88.4,16 h 27.2 c 0.22091,0 0.4,0.179086 0.4,0.4 v 27.2 c 0,0.220914 -0.17909,0.4 -0.4,0.4 z m -40,0 H 72 v -4 h 4 v 3.6 c 0,0.220914 -0.179086,0.4 -0.4,0.4 z m -8,0 H 64.4 C 64.179086,44 64,43.820914 64,43.6 V 40 h 4 v 4 z m -24,0 H 16.4 C 16.179086,44 16,43.820914 16,43.6 V 16.4 C 16,16.179086 16.179086,16 16.4,16 h 27.2 c 0.220914,0 0.4,0.179086 0.4,0.4 V 43.6 C 44,43.820914 43.820914,44 43.6,44 Z M 112,39.6 V 20.4 C 112,20.179086 111.82091,20 111.6,20 H 92.4 C 92.179086,20 92,20.179086 92,20.4 v 19.2 c 0,0.220914 0.179086,0.4 0.4,0.4 h 19.2 c 0.22091,0 0.4,-0.179086 0.4,-0.4 z m -72,0 V 20.4 C 40,20.179086 39.820914,20 39.6,20 H 20.4 C 20.179086,20 20,20.179086 20,20.4 v 19.2 c 0,0.220914 0.179086,0.4 0.4,0.4 H 39.6 C 39.820914,40 40,39.820914 40,39.6 Z M 107.6,36 H 96.4 C 96.179086,36 96,35.820914 96,35.6 V 24.4 C 96,24.179086 96.179086,24 96.4,24 h 11.2 c 0.22091,0 0.4,0.179086 0.4,0.4 v 11.2 c 0,0.220914 -0.17909,0.4 -0.4,0.4 z m -72,0 H 24.4 C 24.179086,36 24,35.820914 24,35.6 V 24.4 C 24,24.179086 24.179086,24 24.4,24 h 11.2 c 0.220914,0 0.4,0.179086 0.4,0.4 v 11.2 c 0,0.220914 -0.179086,0.4 -0.4,0.4 z m 24,-8 H 56.4 C 56.179086,28 56,27.820914 56,27.6 V 24.4 C 56,24.179086 56.179086,24 56.4,24 H 60 v 4 z m -8,0 H 48.4 C 48.179086,28 48,27.820914 48,27.6 V 24.4 C 48,24.179086 48.179086,24 48.4,24 h 3.2 c 0.220914,0 0.4,0.179086 0.4,0.4 v 3.2 c 0,0.220914 -0.179086,0.4 -0.4,0.4 z"
             id="path46340" />
        </g>
      </g>
    </g>
  </g>
</svg>
